<?xml version="1.0" encoding="iso-8859-1"?>
<!-- Generator: Adobe Illustrator 16.0.0, SVG Export Plug-In . SVG Version: 6.00 Build 0)  -->
<!DOCTYPE svg PUBLIC "-//W3C//DTD SVG 1.1//EN" "http://www.w3.org/Graphics/SVG/1.1/DTD/svg11.dtd">
<svg version="1.1" id="Capa_1" xmlns="http://www.w3.org/2000/svg" xmlns:xlink="http://www.w3.org/1999/xlink" x="0px" y="0px"
	 width="39.064px" height="39.065px" viewBox="0 0 39.064 39.065" style="enable-background:new 0 0 39.064 39.065;"
	 xml:space="preserve">
<g>
	<path d="M39.04,26.876l-0.539-3.026c-0.143-0.812-0.917-1.607-1.722-1.777l-2.763-0.582l-0.563-1.156
		c-0.043-0.088-0.121-0.154-0.216-0.185c0.158-0.353,0.28-0.681,0.374-1.001c0.212-0.092,0.328-0.268,0.375-0.338
		c0.075-0.113,0.138-0.234,0.188-0.359c0.145-0.338,0.209-0.67,0.277-1.022c0.022-0.134,0.066-0.261,0.118-0.416l0.073-0.245
		c0.083-0.289,0.036-0.582-0.13-0.804c-0.03-0.042-0.065-0.08-0.107-0.118c0.179-0.936,0.081-1.83-0.291-2.662
		c-0.482-1.077-1.254-1.771-2.296-2.062c-0.385-0.107-0.777-0.188-1.175-0.235l-0.001-0.142l-0.128-0.008
		c-0.228-0.011-0.456-0.017-0.688-0.017l-0.251,0.002c-0.147,0.002-0.295,0.019-0.447,0.045l-0.157-0.233l-0.615,0.397
		c-0.121,0.076-0.242,0.151-0.354,0.235c-0.157,0.115-0.284,0.254-0.375,0.412c-0.321,0.082-0.616,0.242-0.9,0.488
		c-0.04,0.035-0.075,0.074-0.125,0.133l-0.347,0.424l0.123,0.121c-0.119,0.271-0.15,0.529-0.093,0.707
		c-0.167,0.763-0.139,1.539,0.082,2.438c-0.127,0.125-0.207,0.292-0.235,0.496c-0.039,0.289-0.061,0.666,0.116,1.037
		c0.082,0.176,0.135,0.357,0.198,0.578l0.037,0.125c0.046,0.154,0.104,0.303,0.172,0.451c0.055,0.119,0.129,0.233,0.222,0.342
		c0.077,0.09,0.162,0.162,0.253,0.213c0.095,0.343,0.229,0.667,0.396,0.968v0.041h-0.035l-0.02,0.008
		c-0.096,0.027-0.175,0.097-0.219,0.185l-0.562,1.156l-1.747,0.368l-1.746-0.368l-0.564-1.156c-0.044-0.088-0.123-0.155-0.217-0.185
		c0.16-0.352,0.283-0.681,0.374-1.001c0.212-0.092,0.328-0.268,0.376-0.338c0.074-0.113,0.138-0.234,0.189-0.359
		c0.145-0.338,0.208-0.67,0.275-1.022c0.026-0.133,0.067-0.261,0.117-0.416l0.075-0.245c0.084-0.289,0.038-0.582-0.129-0.804
		c-0.031-0.042-0.067-0.08-0.108-0.118c0.18-0.936,0.081-1.83-0.291-2.662c-0.48-1.077-1.254-1.771-2.297-2.062
		c-0.382-0.107-0.776-0.188-1.173-0.235l-0.001-0.142l-0.128-0.008c-0.229-0.011-0.458-0.017-0.688-0.017l-0.252,0.002
		c-0.147,0.002-0.293,0.019-0.445,0.045l-0.158-0.233l-0.618,0.397c-0.119,0.076-0.24,0.151-0.353,0.235
		c-0.158,0.115-0.284,0.255-0.376,0.412c-0.319,0.082-0.614,0.242-0.9,0.488c-0.041,0.035-0.077,0.074-0.125,0.133l-0.345,0.424
		l0.123,0.121c-0.119,0.271-0.151,0.529-0.094,0.707c-0.166,0.763-0.14,1.539,0.082,2.438c-0.129,0.125-0.207,0.292-0.235,0.496
		c-0.04,0.289-0.062,0.666,0.115,1.037c0.082,0.176,0.136,0.357,0.199,0.578l0.037,0.125c0.046,0.154,0.105,0.303,0.171,0.451
		c0.055,0.119,0.129,0.233,0.222,0.342c0.076,0.09,0.161,0.162,0.252,0.213c0.096,0.343,0.229,0.668,0.398,0.969l-0.001,0.039
		l-0.034,0.002l-0.02,0.008c-0.096,0.027-0.175,0.097-0.218,0.185l-0.565,1.156l-1.744,0.369l-1.747-0.369l-0.564-1.156
		c-0.043-0.088-0.122-0.155-0.218-0.185c0.161-0.352,0.283-0.681,0.376-1.001c0.211-0.092,0.327-0.268,0.375-0.338
		c0.074-0.113,0.137-0.234,0.19-0.359c0.143-0.338,0.208-0.67,0.278-1.022c0.025-0.133,0.065-0.26,0.116-0.416l0.074-0.245
		c0.084-0.289,0.038-0.582-0.128-0.804c-0.033-0.042-0.068-0.08-0.11-0.118c0.18-0.936,0.082-1.83-0.291-2.662
		c-0.482-1.077-1.254-1.771-2.297-2.062c-0.381-0.107-0.775-0.188-1.171-0.235l-0.003-0.142l-0.128-0.008
		c-0.229-0.011-0.458-0.017-0.688-0.017l-0.251,0.002c-0.149,0.002-0.295,0.019-0.447,0.045l-0.157-0.233l-0.618,0.397
		c-0.12,0.076-0.239,0.151-0.354,0.235c-0.158,0.115-0.284,0.255-0.376,0.412c-0.32,0.082-0.615,0.242-0.9,0.488
		C5.045,12.101,5.01,12.14,4.96,12.199l-0.344,0.424l0.123,0.121c-0.119,0.271-0.151,0.529-0.094,0.707
		c-0.167,0.763-0.141,1.539,0.082,2.438c-0.128,0.125-0.208,0.292-0.235,0.496c-0.039,0.289-0.062,0.666,0.115,1.037
		c0.082,0.176,0.135,0.357,0.2,0.578l0.037,0.125c0.045,0.154,0.104,0.303,0.17,0.451c0.055,0.119,0.129,0.233,0.221,0.343
		c0.077,0.089,0.161,0.161,0.254,0.212c0.094,0.343,0.228,0.668,0.398,0.969l-0.002,0.039l-0.036,0.004l-0.02,0.008
		c-0.094,0.027-0.174,0.096-0.218,0.186l-0.564,1.154l-2.76,0.582c-0.807,0.17-1.58,0.969-1.723,1.777l-0.539,3.027
		c-0.077,0.436,0.026,0.848,0.292,1.161c0.264,0.317,0.653,0.492,1.093,0.492h10.823h3.782h7.04h3.783h10.817
		c0.438,0,0.829-0.175,1.094-0.492C39.011,27.723,39.117,27.312,39.04,26.876z M33.372,21.805l0.003,0.004l-2.176,1.259
		l-0.398-0.813l2.176-1.259L33.372,21.805z M27.493,18.51c-0.011,0-0.036-0.016-0.071-0.057c-0.048-0.057-0.087-0.115-0.115-0.177
		c-0.052-0.114-0.1-0.235-0.136-0.356l-0.037-0.122c-0.063-0.226-0.133-0.458-0.238-0.681c-0.097-0.205-0.08-0.437-0.054-0.635
		c0.012-0.081,0.018-0.117,0.229-0.137l0.168-0.014l-0.049-0.162c-0.345-1.127-0.386-2.008-0.133-2.854l-0.084-0.028
		c-0.005-0.156,0.109-0.427,0.356-0.681l-0.048-0.067c0.225-0.174,0.456-0.272,0.703-0.299c0.08-0.011,0.177-0.07,0.2-0.158
		c0.035-0.137,0.113-0.246,0.237-0.338c0.094-0.067,0.19-0.129,0.288-0.191l0.045,0.064c0.288-0.109,0.549-0.168,0.796-0.179
		l0.073,0.103l0.134,0.002c0.634,0.008,1.262,0.099,1.865,0.268c0.838,0.234,1.438,0.777,1.834,1.664
		c0.362,0.811,0.414,1.659,0.158,2.594l-0.028,0.098l-0.023,0.127l0.119,0.041l0.123,0.009c0.042,0,0.101,0.009,0.133,0.053
		c0.029,0.039,0.034,0.101,0.016,0.173l-0.073,0.231c-0.05,0.161-0.102,0.323-0.142,0.528c-0.06,0.295-0.114,0.576-0.229,0.844
		c-0.034,0.082-0.076,0.167-0.127,0.242c-0.037,0.059-0.057,0.072-0.054,0.074c-0.007,0-0.032-0.008-0.1-0.055l-0.177-0.088
		L33,18.617c-0.082,0.39-0.221,0.795-0.422,1.238c-0.08,0.176-0.115,0.372-0.107,0.602l-2.122,1.229l-2.119-1.228
		c0,0,0.012-0.262,0.013-0.381c0.003-0.082-0.021-0.172-0.062-0.25c-0.217-0.397-0.356-0.791-0.455-1.256l-0.13,0.041l0.125-0.053
		l-0.094-0.136L27.493,18.51z M27.408,21.648l0.203-0.354l-0.035,0.008l0.149-0.307l2.178,1.258l-0.399,0.813l-2.174-1.259
		L27.408,21.648z M22.551,21.805l0.001,0.004l-2.174,1.259l-0.398-0.813l2.175-1.259L22.551,21.805z M16.672,18.51
		c-0.012,0-0.037-0.016-0.071-0.057c-0.048-0.057-0.088-0.115-0.115-0.177c-0.053-0.114-0.1-0.235-0.137-0.356l-0.035-0.122
		c-0.066-0.226-0.135-0.458-0.24-0.681c-0.095-0.205-0.08-0.437-0.053-0.635c0.012-0.081,0.016-0.117,0.229-0.137l0.168-0.014
		l-0.049-0.162c-0.343-1.127-0.384-2.008-0.131-2.854l-0.084-0.028c-0.004-0.156,0.109-0.427,0.357-0.681l-0.048-0.067
		c0.224-0.174,0.455-0.272,0.704-0.299c0.08-0.011,0.176-0.07,0.2-0.158c0.037-0.137,0.114-0.246,0.239-0.338
		c0.093-0.067,0.19-0.129,0.287-0.191l0.045,0.064c0.289-0.109,0.549-0.168,0.796-0.179l0.073,0.103l0.134,0.002
		c0.634,0.008,1.262,0.099,1.865,0.268c0.837,0.234,1.438,0.777,1.833,1.664c0.362,0.811,0.414,1.659,0.158,2.594l-0.024,0.098
		l-0.025,0.127l0.12,0.041l0.124,0.009c0.042,0,0.098,0.009,0.131,0.053c0.03,0.039,0.036,0.101,0.014,0.173l-0.069,0.231
		c-0.053,0.161-0.104,0.323-0.144,0.528c-0.06,0.295-0.114,0.576-0.227,0.844c-0.036,0.082-0.076,0.167-0.128,0.242
		c-0.038,0.059-0.058,0.072-0.057,0.074c-0.007,0-0.029-0.008-0.099-0.055l-0.175-0.088l-0.058,0.271
		c-0.082,0.39-0.219,0.795-0.422,1.238c-0.08,0.176-0.114,0.372-0.104,0.602l-2.123,1.228l-2.12-1.227c0,0,0.011-0.262,0.012-0.381
		c0.002-0.082-0.021-0.172-0.062-0.25c-0.215-0.397-0.357-0.791-0.454-1.256l-0.131,0.041l0.126-0.053l-0.094-0.136L16.672,18.51z
		 M16.587,21.648l0.203-0.354l-0.035,0.008l0.15-0.307l2.175,1.258l-0.398,0.813l-2.175-1.259L16.587,21.648z M11.729,21.805
		l0.001,0.004l-2.175,1.259l-0.398-0.813l2.176-1.259L11.729,21.805z M5.848,18.51c-0.011,0-0.036-0.016-0.071-0.057
		c-0.047-0.057-0.087-0.115-0.114-0.177c-0.053-0.114-0.102-0.235-0.137-0.356l-0.037-0.122c-0.065-0.226-0.133-0.458-0.238-0.681
		c-0.096-0.205-0.081-0.437-0.053-0.635c0.01-0.081,0.016-0.117,0.229-0.137l0.167-0.014l-0.049-0.162
		c-0.344-1.127-0.384-2.008-0.131-2.854l-0.083-0.028c-0.005-0.156,0.108-0.427,0.357-0.681l-0.05-0.067
		c0.225-0.174,0.457-0.272,0.704-0.299c0.08-0.011,0.176-0.07,0.2-0.158c0.037-0.137,0.115-0.246,0.24-0.338
		c0.093-0.067,0.189-0.129,0.287-0.191l0.046,0.064c0.287-0.109,0.547-0.168,0.793-0.179l0.074,0.103l0.134,0.002
		c0.633,0.008,1.261,0.099,1.864,0.268c0.838,0.234,1.439,0.777,1.833,1.664c0.363,0.811,0.415,1.659,0.158,2.594l-0.026,0.098
		l-0.024,0.127l0.12,0.041l0.123,0.009c0.042,0,0.098,0.009,0.131,0.053c0.032,0.039,0.036,0.101,0.015,0.173l-0.072,0.231
		c-0.05,0.161-0.102,0.323-0.142,0.528c-0.058,0.295-0.114,0.576-0.227,0.844c-0.036,0.082-0.077,0.167-0.127,0.242
		c-0.039,0.059-0.057,0.072-0.056,0.074c-0.005,0-0.031-0.008-0.098-0.055l-0.175-0.088l-0.055,0.271
		c-0.083,0.39-0.221,0.795-0.423,1.238c-0.08,0.176-0.114,0.372-0.106,0.602l-2.122,1.229l-2.12-1.228c0,0,0.011-0.262,0.013-0.381
		c0.002-0.082-0.021-0.172-0.062-0.25c-0.215-0.397-0.358-0.791-0.454-1.256l-0.132,0.041l0.127-0.053l-0.094-0.136L5.848,18.51z
		 M5.763,21.648l0.203-0.354l-0.033,0.008l0.149-0.307l2.175,1.258L7.86,23.066l-2.176-1.259L5.763,21.648z M10.983,27.813H4.916
		v-1.604c0-0.199-0.162-0.359-0.36-0.359c-0.198,0-0.359,0.16-0.359,0.359v1.604H1.405c-0.225,0-0.417-0.083-0.543-0.233
		c-0.126-0.149-0.173-0.354-0.135-0.575l0.539-3.027c0.093-0.527,0.638-1.09,1.163-1.2l2.567-0.541l0.009,0.013l2.829,1.639
		c0.054,0.031,0.116,0.047,0.178,0.047l0.086-0.01l0.019-0.006c0.095-0.029,0.175-0.098,0.218-0.186l0.371-0.762l0.373,0.762
		c0.042,0.088,0.121,0.154,0.215,0.186l0.085,0.016H9.4c0.064,0,0.125-0.016,0.18-0.047l2.799-1.621
		c0.015-0.01,0.028-0.02,0.039-0.028l0.184,0.039c-0.603,0.321-1.108,0.938-1.221,1.577l-0.539,3.025
		C10.782,27.215,10.833,27.537,10.983,27.813z M27.376,27.58c-0.126,0.149-0.319,0.232-0.544,0.232h-0.273H25.84h-1.798v-1.604
		c0-0.197-0.162-0.359-0.359-0.359c-0.195,0-0.357,0.162-0.357,0.359v1.604h-0.274h-1.245h-4.55h-1.245h-0.273v-1.604
		c0-0.197-0.162-0.359-0.359-0.359c-0.198,0-0.36,0.162-0.36,0.359v1.604h-1.798h-0.719h-0.273c-0.225,0-0.418-0.083-0.544-0.232
		s-0.174-0.354-0.134-0.575l0.538-3.029c0.094-0.527,0.638-1.088,1.163-1.199l0.869-0.184l1.517-0.318l0.183-0.039l0.01,0.014
		l2.828,1.639c0.055,0.029,0.117,0.047,0.179,0.047l0.086-0.01l0.02-0.008c0.094-0.027,0.173-0.096,0.217-0.185l0.371-0.763
		l0.372,0.762c0.043,0.087,0.121,0.154,0.216,0.185l0.085,0.017h0.022c0.062,0,0.125-0.017,0.179-0.047l2.799-1.621
		c0.014-0.01,0.028-0.021,0.039-0.028l0.183,0.039l1.519,0.319l0.865,0.183c0.525,0.11,1.069,0.673,1.163,1.2l0.54,3.027
		C27.55,27.223,27.501,27.428,27.376,27.58z M38.199,27.58c-0.128,0.149-0.321,0.232-0.544,0.232h-2.792v-1.604
		c0-0.197-0.16-0.359-0.358-0.359s-0.359,0.162-0.359,0.359v1.604h-6.066c0.146-0.275,0.2-0.599,0.14-0.937l-0.54-3.027
		c-0.111-0.639-0.619-1.256-1.22-1.576l0.183-0.039l0.013,0.013l2.825,1.64c0.058,0.03,0.116,0.047,0.182,0.047l0.085-0.01
		l0.021-0.007c0.096-0.028,0.175-0.098,0.218-0.186l0.372-0.761l0.369,0.761c0.044,0.087,0.122,0.153,0.219,0.186l0.085,0.017h0.021
		c0.062,0,0.125-0.017,0.18-0.047l2.801-1.621c0.015-0.01,0.026-0.021,0.039-0.029l2.565,0.541c0.526,0.111,1.07,0.672,1.164,1.201
		l0.539,3.027C38.371,27.223,38.324,27.428,38.199,27.58z"/>
</g>
<g>
</g>
<g>
</g>
<g>
</g>
<g>
</g>
<g>
</g>
<g>
</g>
<g>
</g>
<g>
</g>
<g>
</g>
<g>
</g>
<g>
</g>
<g>
</g>
<g>
</g>
<g>
</g>
<g>
</g>
</svg>
